<svg xmlns="http://www.w3.org/2000/svg" xmlns:xlink="http://www.w3.org/1999/xlink" width="57" zoomAndPan="magnify" viewBox="0 0 42 42.75" height="57" preserveAspectRatio="xMidYMid meet" version="1.0"><defs><clipPath id="342a0b3823"><path d="M 0.121094 0 L 41.875 0 L 41.875 41.984375 L 0.121094 41.984375 Z M 0.121094 0 " clip-rule="nonzero"/></clipPath><clipPath id="ac02196679"><path d="M 7.820312 14 L 28 14 L 28 34.214844 L 7.820312 34.214844 Z M 7.820312 14 " clip-rule="nonzero"/></clipPath><clipPath id="26f1ab6068"><path d="M 17 7.699219 L 34.335938 7.699219 L 34.335938 25 L 17 25 Z M 17 7.699219 " clip-rule="nonzero"/></clipPath></defs><g clip-path="url(#342a0b3823)"><path fill="#ffffff" d="M 0.121094 0 L 42.109375 0 L 42.109375 41.984375 L 0.121094 41.984375 Z M 0.121094 0 " fill-opacity="1" fill-rule="nonzero"/><path fill="#ffffff" d="M 0.121094 0 L 42.109375 0 L 42.109375 41.984375 L 0.121094 41.984375 Z M 0.121094 0 " fill-opacity="1" fill-rule="nonzero"/></g><path fill="#005dff" d="M 20.609375 19.367188 C 20.765625 19.039062 20.625 18.648438 20.296875 18.488281 C 19.410156 18.066406 18.460938 17.851562 17.472656 17.851562 C 16.585938 17.851562 15.730469 18.023438 14.921875 18.367188 C 14.140625 18.695312 13.441406 19.167969 12.839844 19.769531 C 12.238281 20.371094 11.765625 21.070312 11.433594 21.851562 C 11.09375 22.660156 10.921875 23.519531 10.921875 24.402344 C 10.921875 25.285156 11.09375 26.144531 11.433594 26.953125 C 11.765625 27.734375 12.238281 28.433594 12.839844 29.035156 C 13.441406 29.636719 14.140625 30.109375 14.921875 30.4375 C 15.730469 30.78125 16.585938 30.953125 17.472656 30.953125 C 18.355469 30.953125 19.214844 30.78125 20.023438 30.4375 C 20.800781 30.109375 21.503906 29.636719 22.105469 29.035156 C 22.707031 28.433594 23.179688 27.734375 23.507812 26.953125 C 23.851562 26.144531 24.023438 25.285156 24.023438 24.402344 C 24.023438 23.429688 23.816406 22.492188 23.402344 21.613281 C 23.246094 21.285156 22.855469 21.144531 22.527344 21.300781 C 22.195312 21.453125 22.054688 21.847656 22.210938 22.175781 C 22.539062 22.875 22.707031 23.625 22.707031 24.402344 C 22.707031 25.800781 22.160156 27.113281 21.171875 28.101562 C 20.183594 29.09375 18.871094 29.636719 17.472656 29.636719 C 16.074219 29.636719 14.757812 29.09375 13.769531 28.101562 C 12.78125 27.113281 12.238281 25.800781 12.238281 24.402344 C 12.238281 23.003906 12.78125 21.691406 13.769531 20.699219 C 14.757812 19.710938 16.074219 19.167969 17.472656 19.167969 C 18.261719 19.167969 19.023438 19.339844 19.730469 19.679688 C 20.058594 19.835938 20.449219 19.695312 20.609375 19.367188 Z M 20.609375 19.367188 " fill-opacity="1" fill-rule="nonzero"/><g clip-path="url(#ac02196679)"><path fill="#005dff" d="M 24.742188 19.066406 C 24.433594 19.257812 24.339844 19.667969 24.535156 19.972656 C 25.367188 21.296875 25.804688 22.828125 25.804688 24.402344 C 25.804688 25.527344 25.585938 26.617188 25.152344 27.644531 C 24.730469 28.636719 24.128906 29.53125 23.363281 30.296875 C 22.597656 31.0625 21.707031 31.660156 20.714844 32.082031 C 19.6875 32.515625 18.597656 32.734375 17.472656 32.734375 C 16.347656 32.734375 15.253906 32.515625 14.226562 32.082031 C 13.234375 31.660156 12.34375 31.0625 11.578125 30.296875 C 10.8125 29.53125 10.210938 28.636719 9.792969 27.644531 C 9.359375 26.617188 9.136719 25.527344 9.136719 24.402344 C 9.136719 24.242188 9.140625 24.082031 9.152344 23.921875 C 9.335938 20.644531 11.441406 17.773438 14.515625 16.605469 C 15.457031 16.25 16.453125 16.066406 17.472656 16.066406 C 19.035156 16.066406 20.558594 16.503906 21.878906 17.328125 C 21.988281 17.394531 22.105469 17.425781 22.226562 17.425781 C 22.445312 17.425781 22.660156 17.316406 22.785156 17.117188 C 22.976562 16.808594 22.882812 16.402344 22.574219 16.210938 C 21.046875 15.253906 19.28125 14.75 17.472656 14.75 C 16.292969 14.75 15.140625 14.960938 14.046875 15.375 C 10.488281 16.726562 8.050781 20.050781 7.835938 23.847656 C 7.824219 24.03125 7.820312 24.21875 7.820312 24.402344 C 7.820312 25.703125 8.074219 26.96875 8.578125 28.160156 C 9.066406 29.308594 9.761719 30.339844 10.648438 31.226562 C 11.535156 32.113281 12.566406 32.808594 13.714844 33.292969 C 14.90625 33.796875 16.167969 34.054688 17.472656 34.054688 C 18.773438 34.054688 20.039062 33.796875 21.230469 33.292969 C 22.378906 32.808594 23.410156 32.113281 24.296875 31.226562 C 25.183594 30.339844 25.878906 29.308594 26.363281 28.160156 C 26.867188 26.96875 27.125 25.703125 27.125 24.402344 C 27.125 22.582031 26.613281 20.808594 25.648438 19.273438 C 25.457031 18.964844 25.050781 18.871094 24.742188 19.066406 Z M 24.742188 19.066406 " fill-opacity="1" fill-rule="nonzero"/></g><g clip-path="url(#26f1ab6068)"><path fill="#005dff" d="M 34.097656 12.925781 C 34.023438 12.6875 33.820312 12.515625 33.574219 12.476562 L 30.261719 11.953125 C 30.226562 11.878906 30.183594 11.8125 30.121094 11.75 C 30.0625 11.691406 29.992188 11.644531 29.917969 11.613281 L 29.394531 8.296875 C 29.355469 8.054688 29.183594 7.851562 28.949219 7.773438 C 28.710938 7.699219 28.453125 7.757812 28.277344 7.933594 L 24.074219 12.140625 C 23.921875 12.289062 23.855469 12.5 23.886719 12.710938 L 24.480469 16.460938 L 17.261719 23.679688 C 17.003906 23.933594 17.003906 24.351562 17.261719 24.609375 C 17.390625 24.738281 17.558594 24.800781 17.730469 24.800781 C 17.898438 24.800781 18.066406 24.738281 18.195312 24.609375 L 25.410156 17.390625 L 29.164062 17.984375 C 29.199219 17.992188 29.230469 17.992188 29.265625 17.992188 C 29.4375 17.992188 29.605469 17.925781 29.730469 17.800781 L 33.9375 13.59375 C 34.113281 13.417969 34.175781 13.160156 34.097656 12.925781 Z M 28.296875 9.78125 L 28.6875 12.253906 L 25.632812 15.308594 L 25.242188 12.835938 Z M 29.039062 16.632812 L 26.5625 16.242188 L 29.617188 13.1875 L 32.089844 13.578125 Z M 29.039062 16.632812 " fill-opacity="1" fill-rule="nonzero"/></g><path fill="#005dff" d="M 17.472656 22.652344 C 17.554688 22.652344 17.632812 22.660156 17.714844 22.667969 C 18.074219 22.71875 18.40625 22.46875 18.457031 22.105469 C 18.507812 21.746094 18.253906 21.414062 17.894531 21.363281 C 17.753906 21.34375 17.613281 21.335938 17.472656 21.335938 C 15.78125 21.335938 14.40625 22.710938 14.40625 24.402344 C 14.40625 26.09375 15.78125 27.46875 17.472656 27.46875 C 19.164062 27.46875 20.539062 26.09375 20.539062 24.402344 C 20.539062 24.265625 20.527344 24.125 20.511719 23.988281 C 20.460938 23.628906 20.128906 23.375 19.769531 23.425781 C 19.410156 23.472656 19.15625 23.804688 19.207031 24.164062 C 19.214844 24.242188 19.222656 24.324219 19.222656 24.402344 C 19.222656 25.367188 18.4375 26.152344 17.472656 26.152344 C 16.507812 26.152344 15.722656 25.367188 15.722656 24.402344 C 15.722656 23.4375 16.507812 22.652344 17.472656 22.652344 Z M 17.472656 22.652344 " fill-opacity="1" fill-rule="nonzero"/></svg>