<svg xmlns="http://www.w3.org/2000/svg" xmlns:xlink="http://www.w3.org/1999/xlink" width="57" zoomAndPan="magnify" viewBox="0 0 42 42.75" height="57" preserveAspectRatio="xMidYMid meet" version="1.0"><defs><clipPath id="8c9e003469"><path d="M 0.121094 0 L 41.875 0 L 41.875 41.984375 L 0.121094 41.984375 Z M 0.121094 0 " clip-rule="nonzero"/></clipPath><clipPath id="092f04322d"><path d="M 5.0625 25 L 19 25 L 19 34.6875 L 5.0625 34.6875 Z M 5.0625 25 " clip-rule="nonzero"/></clipPath><clipPath id="5186675ba4"><path d="M 23 25 L 36.734375 25 L 36.734375 34.6875 L 23 34.6875 Z M 23 25 " clip-rule="nonzero"/></clipPath><clipPath id="a5f2510ce5"><path d="M 9 7.433594 L 32 7.433594 L 32 33 L 9 33 Z M 9 7.433594 " clip-rule="nonzero"/></clipPath></defs><g clip-path="url(#8c9e003469)"><path fill="#ffffff" d="M 0.121094 0 L 42.109375 0 L 42.109375 41.984375 L 0.121094 41.984375 Z M 0.121094 0 " fill-opacity="1" fill-rule="nonzero"/><path fill="#ededed" d="M 0.121094 0 L 42.109375 0 L 42.109375 41.984375 L 0.121094 41.984375 Z M 0.121094 0 " fill-opacity="1" fill-rule="nonzero"/></g><g clip-path="url(#092f04322d)"><path fill="#687382" d="M 10.066406 37.148438 C 9.710938 36.789062 9.300781 36.507812 8.835938 36.308594 C 8.375 36.105469 7.890625 35.996094 7.386719 35.976562 C 6.882812 35.957031 6.390625 36.03125 5.914062 36.195312 C 5.4375 36.363281 5.007812 36.609375 4.625 36.941406 L 4.625 33.359375 C 4.625 32.871094 4.574219 32.382812 4.480469 31.902344 C 4.382812 31.421875 4.242188 30.957031 4.054688 30.503906 C 3.863281 30.050781 3.632812 29.617188 3.363281 29.210938 C 3.089844 28.804688 2.777344 28.425781 2.433594 28.078125 C 2.085938 27.730469 1.707031 27.421875 1.300781 27.148438 C 0.890625 26.878906 0.460938 26.648438 0.0078125 26.457031 C -0.445312 26.269531 -0.910156 26.128906 -1.390625 26.03125 C -1.875 25.9375 -2.359375 25.886719 -2.851562 25.886719 C -3.105469 25.886719 -3.320312 25.976562 -3.5 26.15625 C -3.679688 26.335938 -3.769531 26.554688 -3.769531 26.808594 L -3.769531 42.113281 C -3.773438 43.316406 -3.347656 44.339844 -2.496094 45.1875 L 3.480469 51.164062 C 3.65625 51.339844 3.742188 51.546875 3.742188 51.796875 L 3.742188 55.339844 C 3.742188 55.59375 3.832031 55.8125 4.011719 55.992188 C 4.191406 56.171875 4.40625 56.261719 4.660156 56.261719 L 17.410156 56.242188 C 17.664062 56.242188 17.878906 56.152344 18.058594 55.972656 C 18.238281 55.792969 18.328125 55.578125 18.328125 55.324219 L 18.328125 46.835938 C 18.328125 45.882812 17.992188 45.070312 17.316406 44.394531 Z M 16.488281 54.40625 L 5.582031 54.421875 L 5.582031 51.796875 C 5.582031 51.042969 5.316406 50.398438 4.78125 49.863281 L -1.195312 43.886719 C -1.683594 43.398438 -1.929688 42.804688 -1.929688 42.113281 L -1.929688 27.800781 C -1.273438 27.910156 -0.652344 28.128906 -0.0742188 28.460938 C 0.507812 28.789062 1.011719 29.207031 1.445312 29.71875 C 1.875 30.226562 2.207031 30.792969 2.4375 31.421875 C 2.667969 32.046875 2.785156 32.695312 2.785156 33.359375 L 2.785156 40.820312 C 2.785156 41.074219 2.875 41.292969 3.054688 41.472656 L 8.03125 46.449219 C 8.210938 46.628906 8.429688 46.71875 8.683594 46.71875 C 8.9375 46.71875 9.15625 46.628906 9.335938 46.449219 C 9.515625 46.269531 9.605469 46.054688 9.605469 45.800781 C 9.605469 45.546875 9.515625 45.328125 9.332031 45.148438 L 5.792969 41.605469 C 5.59375 41.414062 5.433594 41.195312 5.3125 40.941406 C 5.195312 40.691406 5.125 40.429688 5.101562 40.152344 C 5.082031 39.875 5.109375 39.605469 5.1875 39.335938 C 5.265625 39.070312 5.386719 38.828125 5.554688 38.605469 C 5.960938 38.105469 6.488281 37.84375 7.132812 37.8125 C 7.769531 37.785156 8.316406 37.996094 8.769531 38.445312 L 16.019531 45.695312 C 16.335938 46.007812 16.496094 46.390625 16.492188 46.835938 Z M 16.488281 54.40625 " fill-opacity="1" fill-rule="nonzero"/></g><g clip-path="url(#5186675ba4)"><path fill="#687382" d="M 44.433594 25.886719 C 43.941406 25.886719 43.457031 25.9375 42.976562 26.03125 C 42.496094 26.128906 42.027344 26.269531 41.574219 26.457031 C 41.121094 26.648438 40.691406 26.878906 40.28125 27.148438 C 39.875 27.421875 39.496094 27.730469 39.152344 28.078125 C 38.804688 28.425781 38.496094 28.804688 38.222656 29.210938 C 37.949219 29.617188 37.71875 30.050781 37.53125 30.503906 C 37.34375 30.957031 37.199219 31.421875 37.105469 31.902344 C 37.007812 32.382812 36.960938 32.871094 36.960938 33.359375 L 36.960938 36.941406 C 36.578125 36.609375 36.144531 36.363281 35.667969 36.195312 C 35.191406 36.03125 34.703125 35.957031 34.199219 35.976562 C 33.691406 35.996094 33.207031 36.105469 32.746094 36.308594 C 32.285156 36.507812 31.875 36.789062 31.515625 37.148438 L 24.265625 44.398438 C 23.589844 45.070312 23.253906 45.882812 23.253906 46.835938 L 23.253906 55.324219 C 23.253906 55.578125 23.34375 55.792969 23.523438 55.972656 C 23.703125 56.152344 23.917969 56.242188 24.171875 56.242188 L 36.921875 56.261719 C 37.175781 56.261719 37.390625 56.171875 37.570312 55.992188 C 37.75 55.8125 37.839844 55.59375 37.839844 55.339844 L 37.839844 51.796875 C 37.839844 51.550781 37.929688 51.339844 38.101562 51.167969 L 44.078125 45.191406 C 44.929688 44.34375 45.355469 43.320312 45.351562 42.117188 L 45.351562 26.808594 C 45.351562 26.554688 45.261719 26.335938 45.082031 26.15625 C 44.902344 25.976562 44.6875 25.886719 44.433594 25.886719 Z M 43.515625 42.113281 C 43.511719 42.808594 43.265625 43.398438 42.777344 43.890625 L 36.804688 49.863281 C 36.269531 50.398438 36 51.042969 36.003906 51.796875 L 36.003906 54.421875 L 25.09375 54.40625 L 25.09375 46.835938 C 25.09375 46.390625 25.25 46.011719 25.566406 45.695312 L 32.816406 38.445312 C 33.273438 37.996094 33.816406 37.785156 34.457031 37.816406 C 35.101562 37.84375 35.625 38.109375 36.03125 38.609375 C 36.199219 38.828125 36.324219 39.074219 36.402344 39.339844 C 36.480469 39.605469 36.507812 39.878906 36.484375 40.152344 C 36.464844 40.429688 36.394531 40.695312 36.273438 40.945312 C 36.152344 41.195312 35.992188 41.417969 35.792969 41.609375 L 32.25 45.148438 C 32.074219 45.328125 31.988281 45.542969 31.992188 45.796875 C 31.992188 46.046875 32.082031 46.261719 32.261719 46.4375 C 32.4375 46.613281 32.652344 46.703125 32.902344 46.707031 C 33.152344 46.707031 33.371094 46.621094 33.550781 46.449219 L 38.527344 41.472656 C 38.707031 41.292969 38.796875 41.074219 38.796875 40.820312 L 38.796875 33.359375 C 38.800781 32.695312 38.914062 32.046875 39.144531 31.421875 C 39.375 30.792969 39.707031 30.226562 40.136719 29.71875 C 40.570312 29.207031 41.074219 28.789062 41.65625 28.460938 C 42.234375 28.128906 42.855469 27.910156 43.515625 27.800781 Z M 43.515625 42.113281 " fill-opacity="1" fill-rule="nonzero"/></g><g clip-path="url(#a5f2510ce5)"><path fill="#687382" d="M 31.402344 26.785156 C 31.707031 26.609375 31.859375 26.34375 31.863281 25.992188 L 31.894531 14.058594 L 31.894531 14.054688 C 31.894531 14.015625 31.886719 13.972656 31.878906 13.933594 C 31.875 13.894531 31.871094 13.855469 31.863281 13.816406 C 31.851562 13.78125 31.835938 13.742188 31.816406 13.707031 C 31.804688 13.667969 31.789062 13.632812 31.773438 13.597656 C 31.746094 13.558594 31.71875 13.519531 31.6875 13.484375 C 31.667969 13.457031 31.648438 13.433594 31.628906 13.40625 C 31.570312 13.351562 31.507812 13.300781 31.4375 13.261719 L 21.046875 7.261719 C 20.738281 7.082031 20.433594 7.082031 20.125 7.261719 L 10.175781 13.039062 C 10.140625 13.0625 10.109375 13.089844 10.078125 13.117188 C 10.046875 13.136719 10.015625 13.160156 9.988281 13.1875 C 9.960938 13.214844 9.941406 13.246094 9.917969 13.277344 C 9.890625 13.308594 9.867188 13.339844 9.84375 13.375 C 9.824219 13.414062 9.808594 13.449219 9.796875 13.488281 C 9.777344 13.523438 9.765625 13.558594 9.753906 13.59375 C 9.742188 13.636719 9.738281 13.675781 9.734375 13.71875 C 9.726562 13.757812 9.722656 13.792969 9.71875 13.832031 L 9.6875 25.765625 C 9.683594 26.121094 9.839844 26.386719 10.144531 26.566406 L 20.535156 32.570312 C 20.753906 32.695312 20.988281 32.726562 21.234375 32.660156 C 21.261719 32.648438 21.289062 32.636719 21.316406 32.625 C 21.363281 32.609375 21.410156 32.589844 21.453125 32.570312 L 21.457031 32.570312 Z M 21.921875 30.171875 L 21.9375 24.085938 L 21.949219 20.367188 L 30.054688 15.65625 L 30.027344 25.460938 Z M 20.589844 9.121094 L 29.144531 14.058594 L 21.027344 18.773438 L 12.503906 13.855469 L 12.472656 13.835938 Z M 11.554688 15.429688 L 11.585938 15.445312 L 20.109375 20.367188 L 20.101562 22.308594 L 20.082031 30.183594 L 11.527344 25.242188 Z M 11.554688 15.429688 " fill-opacity="1" fill-rule="nonzero"/></g></svg>